<svg version="1.1" id="Layer_1" xmlns="http://www.w3.org/2000/svg" xmlns:xlink="http://www.w3.org/1999/xlink" x="0px" y="0px"
	 width="100%" viewBox="0 0 500 500" enable-background="new 0 0 500 500" xml:space="preserve">
<path fill="#000000" opacity="1.000000" stroke="none" 
	d="
M315.000000,501.000000 
	C210.000031,501.000000 105.500053,501.000000 1.000056,501.000000 
	C1.000037,334.333405 1.000037,167.666794 1.000019,1.000146 
	C167.666565,1.000097 334.333130,1.000097 500.999756,1.000049 
	C500.999847,167.666519 500.999847,334.333038 500.999939,500.999786 
	C439.166656,501.000000 377.333344,501.000000 315.000000,501.000000 
M42.223110,355.499878 
	C42.223110,364.265594 42.223110,373.031281 42.223110,381.656677 
	C59.112103,381.656677 75.350601,381.656677 91.815910,381.656677 
	C91.815910,379.499023 91.815933,377.685822 91.815903,375.872620 
	C91.815430,347.044312 91.802002,318.215973 91.846016,289.387756 
	C91.848709,287.621521 91.666916,285.288361 92.652107,284.179749 
	C100.746033,275.072235 109.096230,266.192413 117.496819,257.104889 
	C118.377792,258.434113 118.951157,259.248505 119.473419,260.094452 
	C143.568848,299.122986 167.707855,338.124908 191.669357,377.235535 
	C193.822449,380.749817 195.991745,382.197388 200.250946,382.123077 
	C217.242844,381.826752 234.242889,382.003662 251.239914,381.985168 
	C252.443558,381.983856 253.647049,381.818787 255.292603,381.697205 
	C221.059387,327.192810 187.153076,273.208893 153.106522,219.001694 
	C186.193726,183.381485 219.085281,147.971893 252.659393,111.827484 
	C232.243973,111.827484 212.956711,111.756416 193.672302,111.957619 
	C192.067551,111.974358 190.162674,113.536392 188.934479,114.873825 
	C162.231232,143.952423 135.609604,173.105942 108.958344,202.232315 
	C103.525841,208.169327 98.037163,214.054932 91.683304,220.928146 
	C91.683304,183.729919 91.683304,147.862335 91.683304,112.207420 
	C74.940742,112.207420 58.706974,112.207420 42.223022,112.207420 
	C42.223022,193.236313 42.223022,273.868073 42.223110,355.499878 
M459.852753,280.500061 
	C459.852753,224.404785 459.852753,168.309509 459.852753,112.122871 
	C443.019409,112.122871 426.782013,112.122871 410.176270,112.122871 
	C410.176270,114.064865 410.176208,115.699081 410.176270,117.333305 
	C410.177368,143.830872 410.201141,170.328461 410.174164,196.825989 
	C410.136353,233.988068 410.164093,271.150757 409.928070,308.311707 
	C409.869812,317.481781 407.238922,326.155548 400.970032,333.119415 
	C389.505402,345.855133 362.362305,345.889008 350.621368,333.372955 
	C349.496155,332.173462 348.588837,330.756592 347.663879,329.384369 
	C341.988342,320.964752 340.676117,311.273102 339.920166,301.473816 
	C323.354248,301.473816 307.120605,301.473816 290.346191,301.473816 
	C290.912689,307.956757 291.057831,314.140289 292.048950,320.185120 
	C296.577362,347.803772 311.063934,367.950958 337.152679,379.109253 
	C356.636505,387.442535 376.959167,387.812805 397.488464,384.886566 
	C427.564484,380.599609 451.599243,358.621582 456.758026,328.715149 
	C459.424194,313.258728 458.923004,297.255981 459.852753,280.500061 
z"/>
<path fill="#FDFDFD" opacity="1.000000" stroke="none" 
	d="
M42.223068,354.999847 
	C42.223022,273.868073 42.223022,193.236313 42.223022,112.207420 
	C58.706974,112.207420 74.940742,112.207420 91.683304,112.207420 
	C91.683304,147.862335 91.683304,183.729919 91.683304,220.928146 
	C98.037163,214.054932 103.525841,208.169327 108.958344,202.232315 
	C135.609604,173.105942 162.231232,143.952423 188.934479,114.873825 
	C190.162674,113.536392 192.067551,111.974358 193.672302,111.957619 
	C212.956711,111.756416 232.243973,111.827484 252.659393,111.827484 
	C219.085281,147.971893 186.193726,183.381485 153.106522,219.001694 
	C187.153076,273.208893 221.059387,327.192810 255.292603,381.697205 
	C253.647049,381.818787 252.443558,381.983856 251.239914,381.985168 
	C234.242889,382.003662 217.242844,381.826752 200.250946,382.123077 
	C195.991745,382.197388 193.822449,380.749817 191.669357,377.235535 
	C167.707855,338.124908 143.568848,299.122986 119.473419,260.094452 
	C118.951157,259.248505 118.377792,258.434113 117.496819,257.104889 
	C109.096230,266.192413 100.746033,275.072235 92.652107,284.179749 
	C91.666916,285.288361 91.848709,287.621521 91.846016,289.387756 
	C91.802002,318.215973 91.815430,347.044312 91.815903,375.872620 
	C91.815933,377.685822 91.815910,379.499023 91.815910,381.656677 
	C75.350601,381.656677 59.112103,381.656677 42.223110,381.656677 
	C42.223110,373.031281 42.223110,364.265594 42.223068,354.999847 
z"/>
<path fill="#FDFDFD" opacity="1.000000" stroke="none" 
	d="
M459.852814,281.000061 
	C458.923004,297.255981 459.424194,313.258728 456.758026,328.715149 
	C451.599243,358.621582 427.564484,380.599609 397.488464,384.886566 
	C376.959167,387.812805 356.636505,387.442535 337.152679,379.109253 
	C311.063934,367.950958 296.577362,347.803772 292.048950,320.185120 
	C291.057831,314.140289 290.912689,307.956757 290.346191,301.473816 
	C307.120605,301.473816 323.354248,301.473816 339.920166,301.473816 
	C340.676117,311.273102 341.988342,320.964752 347.663879,329.384369 
	C348.588837,330.756592 349.496155,332.173462 350.621368,333.372955 
	C362.362305,345.889008 389.505402,345.855133 400.970032,333.119415 
	C407.238922,326.155548 409.869812,317.481781 409.928070,308.311707 
	C410.164093,271.150757 410.136353,233.988068 410.174164,196.825989 
	C410.201141,170.328461 410.177368,143.830872 410.176270,117.333305 
	C410.176208,115.699081 410.176270,114.064865 410.176270,112.122871 
	C426.782013,112.122871 443.019409,112.122871 459.852753,112.122871 
	C459.852753,168.309509 459.852753,224.404785 459.852814,281.000061 
z"/>
</svg>